<?xml version="1.0" encoding="UTF-8"?><svg id="Layer_1" xmlns="http://www.w3.org/2000/svg" viewBox="0 0 2677.61 511.53"><defs><style>.cls-1{fill:#58585b;stroke-width:0px;}</style></defs><rect class="cls-1" y="55.49" width="91.31" height="79.65"/><polygon class="cls-1" points="133.21 55.47 133.21 511.51 213.51 511.51 213.51 135.15 346.73 135.15 346.73 55.47 133.21 55.47"/><path class="cls-1" d="m386.57,258.81v252.72h71.62v-241.91c0-31.09,14.19-45.96,45.95-45.96h125.68v-68.91h-146.63c-70.27,0-96.63,32.43-96.63,104.06Z"/><path class="cls-1" d="m911.67,154.72h-214.25v68.9h213.55c30.02,0,46.22,12.77,52.08,31.21,1.82,5.58,2.66,11.66,2.66,18.15v150.65c0,12.85-5.38,18.29-19.62,18.29h-149.96c-35.82,0-50.05-16.89-50.05-43.28s13.54-41.89,51.38-41.89h126.36v-56.76h-127.69c-87.9,0-120.29,37.84-120.29,102.69s35.11,108.84,119.59,108.84h166.92c60.11,0,73.65-20.32,73.65-71.7v-167.55c0-67.58-35.19-117.56-124.33-117.56Z"/><path class="cls-1" d="m1300.24,154.75h-147.31c-35.81,0-50,13.51-50,55.4v301.37h71.62V233.8c0-6.76,2.71-10.14,8.78-10.14h116.91c75,0,107.43,31.09,107.43,87.17v200.69h72.3v-200.69c0-98.65-58.79-156.08-179.74-156.08Z"/><path class="cls-1" d="m2111.94,445.98v65.48h-64.3c-73.65,0-105.42-29.74-105.42-123.01v-122.94h72.32v127.06c0,39.86,14.17,53.41,47.96,53.41h49.43Z"/><path class="cls-1" d="m2249.82,405.7c-.91-4.12-1.33-8.52-1.33-13.12v-119.59c0-27.72,15.5-49.36,54.73-49.36h114.84c35.18,0,50.68,17.59,50.68,44.61s-14.17,42.59-52.71,42.59h-125.66v56.06h127.69c87.89,0,120.98-37.14,120.98-102.69,0-68.9-35.81-109.46-120.28-109.46h-115.54c-89.22,0-124.33,49.98-124.33,117.56v121.61c0,67.58,35.12,117.63,124.33,117.63h218.23v-69.6h-218.23c-32.88,0-49.08-14.73-53.41-36.23Z"/><rect class="cls-1" x="2605.99" width="71.62" height="511.52"/><path class="cls-1" d="m1663.09,154.69c-83.04,0-116.16,39.96-116.16,104.08,0,54.78,24.28,104.08,122.88,104.08h84.53c35.73,0,50.67,11.45,50.67,39.84s-13.57,39.22-46.69,39.22h-207.41v69.59h207.41c83.78,0,116.9-44.57,116.9-108.06,0-55.4-24.9-100.72-123.63-100.72h-83.79c-39.84,0-50.67-13.45-50.67-38.47,0-27.02,13.57-40.59,46.69-40.59h211.4v-68.97h-212.14Z"/><polygon class="cls-1" points="2072.05 154.69 2014.53 154.69 2014.53 70.28 1942.19 70.28 1942.19 154.69 1942.19 223.66 2072.05 223.66 2113.13 223.66 2113.13 154.69 2072.05 154.69"/></svg>